<?xml version="1.0" encoding="UTF-8"?>
<svg version="1.1" xmlns="http://www.w3.org/2000/svg" xmlns:xlink="http://www.w3.org/1999/xlink" x="0px" y="0px" viewBox="0 0 150 60" style="enable-background:new 0 0 150 60;" xml:space="preserve">
<style type="text/css">
	.st0{fill:none;}
	.st1{fill:#F9CC44;fill-opacity:0;}
	.st2{fill:#F9CC44;}
	.st3{fill:#F9CC45;}
	.st4{fill:#ffffff;}
</style>
<rect class="st0" width="150" height="60"/>
<g transform="translate(0,0)">
	<g>
		<rect x="7" y="5.9" class="st1" width="44.1" height="50.6"/>
		<path class="st2" d="M46.9,23.5c-0.7-0.5-1.7-0.2-2.2,0.5s-0.2,1.7,0.5,2.2c1.7,1,2.8,3,2.8,5s-1,3.8-2.8,5l-26,16.2    c-1.8,1.2-4,1.2-6,0.2c-1.8-1-3-3-3-5.2V14.9c0-2.2,1.2-4,3-5.2c1.8-1,4.2-1,6,0.2l15.2,9.5c0.7,0.5,1.7,0.2,2.2-0.5    s0.2-1.7-0.5-2.2l0,0L20.9,7.2c-2.8-1.8-6.3-1.8-9.2-0.2C8.9,8.7,7,11.5,7,14.8v32.5c0,3.3,1.7,6.3,4.7,7.8    c1.3,0.8,2.8,1.2,4.3,1.2c1.7,0,3.3-0.5,4.8-1.3l26-16.2c2.7-1.7,4.3-4.5,4.3-7.7C51.3,28,49.6,25.2,46.9,23.5z"/>
	</g>
</g>
<g>
	<path class="st4" d="M62.6,22.2l-1.2,6.3h-3l-1.3-12.8h2.3l0.8,9.5l1.2-8h2l1.3,8l0.8-9.5h2.3l-1.3,12.8h-3L62.6,22.2z M75.7,15.7l3,12.8h-2.5   l-1-4.2H72l-1,4.2h-2.5l3-12.8H75.7z M74.7,22l-1-4.5l-1,4.5H74.7z M78.9,17.9v-2.2h8.7V18h-3.2v10.5h-2.5V18h-3V17.9z M93.9,28.5   c-1.7,0-3-0.5-3.8-1.7S88.9,24,88.9,22l0,0c0-4.3,1.7-6.3,5-6.3l0,0c1,0,1.8,0.2,2.5,0.5c0.7,0.3,1,0.8,1.3,1.3s0.3,1.2,0.3,1.7   l0,0h-2.5c0-0.2-0.2-0.3-0.2-0.5c-0.2-0.2-0.3-0.3-0.7-0.5C94.3,18,94.1,18,93.8,18l0,0c-1,0-1.7,0.3-2,1s-0.7,1.7-0.7,3l0,0   c0,1.3,0.2,2.3,0.5,3s1,1.2,2,1.2l0,0c0.7,0,1-0.2,1.3-0.5s0.5-0.7,0.5-1.2l0,0h2.5c0,0.5-0.2,1.2-0.3,1.7   c-0.2,0.7-0.7,1.2-1.3,1.7C95.7,28.4,95.1,28.5,93.9,28.5L93.9,28.5z M102.7,20.5h3.3v-4.8h2.5v12.8H106v-5.7h-3.3v5.7h-2.5V15.7   h2.5V20.5z M119,26.2h-5.8V15.7h-2.5v12.8h8.2L119,26.2L119,26.2z M123,15.7h-2.5v12.8h2.5V15.7z M129.5,28.5   c-1.5,0-2.5-0.3-3.2-1.2c-0.7-0.7-1.2-1.7-1.2-3l0,0h2.3c0,0.5,0.2,1,0.5,1.2c0.3,0.3,0.8,0.5,1.5,0.5l0,0c0.7,0,1.2-0.2,1.5-0.3   c0.3-0.2,0.5-0.7,0.5-1.2l0,0c0-0.3-0.2-0.5-0.5-0.8c-0.3-0.2-0.8-0.5-1.7-0.7l0,0c-0.8-0.3-1.5-0.5-2-0.8s-1-0.7-1.3-1.2   s-0.5-1.2-0.5-1.8l0,0c0-1.2,0.3-2.2,1.2-2.8c0.8-0.7,1.8-1,3-1l0,0c0.8,0,1.7,0.2,2.2,0.5c0.7,0.3,1.2,0.8,1.5,1.3   s0.5,1.2,0.5,1.8l0,0h-2.4c0-0.3-0.2-0.7-0.5-1c-0.3-0.2-0.7-0.3-1.3-0.3l0,0c-0.5,0-1,0.2-1.3,0.3c-0.3,0.2-0.5,0.7-0.5,1.2l0,0   c0,0.3,0.2,0.5,0.5,0.7s0.8,0.5,1.7,0.8l0,0c0.8,0.3,1.5,0.7,2,1s1,0.7,1.3,1.2s0.5,1,0.5,1.8l0,0c0,1-0.3,2-1,2.7   C132.2,28,131.2,28.5,129.5,28.5L129.5,28.5z M135.4,17.9v-2.2h8.7V18h-3.2v10.5h-2.5V18h-3V17.9z"/>
</g>
<g transform="translate(0,20.780000686645508)">
	<g transform="scale(1)">
		<path class="st3" d="M57.1,10h4.7c0.8,0,1.7,0.2,2.2,0.5c0.7,0.3,1.2,0.8,1.5,1.5s0.5,1.3,0.5,2.2l0,0c0,0.8-0.2,1.5-0.5,2.2    c-0.3,0.7-0.8,1.2-1.5,1.5c-0.7,0.3-1.3,0.5-2.2,0.5l0,0h-2.2v4.7h-2.5C57.1,23.1,57.1,10,57.1,10z M63.4,14.2    c0-0.5-0.2-1-0.5-1.3s-0.8-0.5-1.3-0.5l0,0h-2v3.7h2.2c0.5,0,1-0.2,1.3-0.5C63.2,15.2,63.4,14.7,63.4,14.2L63.4,14.2z M74.7,17.4    l2.3,5.7h-2.5l-2.2-5c-0.2,0-0.2,0-0.3,0l0,0h-1.7v5h-2.5V10.2h4c0.8,0,1.7,0.2,2.3,0.3c0.7,0.3,1.3,0.7,1.7,1.3    c0.5,0.5,0.7,1.3,0.7,2.2l0,0c0,0.8-0.2,1.5-0.5,2S75.4,17,74.7,17.4L74.7,17.4z M71.9,12.4h-1.7v3.3h1.7c0.7,0,1.3-0.2,1.7-0.5    c0.3-0.3,0.7-0.7,0.7-1.3l0,0c0-0.5-0.2-0.8-0.7-1.2C73,12.5,72.5,12.4,71.9,12.4L71.9,12.4z M83.4,23c-1.5,0-2.7-0.5-3.5-1.7    s-1.2-2.7-1.2-4.8l0,0c0-2,0.3-3.5,1.2-4.7s2-1.8,3.5-1.8l0,0c1.7,0,2.8,0.7,3.5,1.8c0.7,1.2,1.2,2.8,1.2,4.7l0,0    c0,2.2-0.3,3.8-1,4.8C86.4,22.5,85,23,83.4,23L83.4,23z M83.4,20.7c0.7,0,1-0.2,1.3-0.5s0.5-0.8,0.7-1.5s0.2-1.3,0.2-2.3l0,0    c0-1.3-0.2-2.3-0.5-3.2c-0.3-0.7-0.8-1.2-1.7-1.2l0,0c-0.8,0-1.3,0.3-1.7,1.2c-0.3,0.8-0.5,1.8-0.5,3l0,0c0,1.3,0.2,2.3,0.5,3.2    C82,20.4,82.7,20.7,83.4,20.7L83.4,20.7z"/>
	</g>
</g>
<g transform="translate(0,4.472843170166016)">
	<g>
		<rect x="13.6" y="20.8" class="st1" width="25" height="12.3"/>
		<path class="st2" d="M17,20.8l1.5,7.3l0,0l1.3-7.3H23l1.3,7.3l0,0l1.7-7.3h3.2l-3.5,12.3H23l-1.5-6.7l-1.7,6.7h-2.7l-3.3-12.3H17z     M38.8,25.2L38.8,25.2c0,0.7-0.2,1.3-0.3,1.8c-0.2,0.5-0.5,1-0.8,1.3s-0.8,0.5-1.3,0.7s-1,0.2-1.7,0.2l0,0h-1.5v4h-3V20.8h4.7    c0.5,0,1,0.2,1.5,0.3c0.5,0.2,0.8,0.5,1.2,0.8c0.3,0.3,0.7,0.8,0.8,1.3C38.6,23.8,38.8,24.5,38.8,25.2z M33.1,23.8v2.8h1.2    c0.2,0,0.3,0,0.5,0s0.3-0.2,0.5-0.2c0.2-0.2,0.3-0.3,0.3-0.5c0.2-0.2,0.2-0.3,0.2-0.7l0,0c0-0.3,0-0.5-0.2-0.7s-0.2-0.3-0.3-0.5    c-0.2,0-0.4,0-0.5,0s-0.3,0-0.5,0l0,0h-1.2V23.8z"/>
	</g>
</g>
</svg>